HIERARCHY
ROOT Pelvis
{
	OFFSET 0.000000 0.000000 0.000000
	CHANNELS 6 Xposition Yposition Zposition Xrotation Yrotation Zrotation
	JOINT LeftUpLeg_virtual
	{
		OFFSET 0.000000 0.000000 0.000000
		CHANNELS 3 Xrotation Yrotation Zrotation
		JOINT LeftUpLeg
		{
			OFFSET 18.735201 -5.666702 -4.541200
			CHANNELS 3 Xrotation Yrotation Zrotation
			JOINT LeftLeg
			{
				OFFSET -0.021200 -31.938179 0.493100
				CHANNELS 3 Xrotation Yrotation Zrotation
				JOINT LeftFoot
				{
					OFFSET 0.021200 -31.938179 -4.336299
					CHANNELS 3 Xrotation Yrotation Zrotation
					JOINT LeftToeBase
					{
						OFFSET 0.943001 -26.722000 15.023500
						CHANNELS 3 Xrotation Yrotation Zrotation
						End Site
						{
							OFFSET 0 0 0
						}
					}
				}
			}
		}
	}
	JOINT RightUpLeg_virtual
	{
		OFFSET 0.000000 0.000000 0.000000
		CHANNELS 3 Xrotation Yrotation Zrotation
		JOINT RightUpLeg
		{
			OFFSET -18.735201 -5.666702 -4.541200
			CHANNELS 3 Xrotation Yrotation Zrotation
			JOINT RightLeg
			{
				OFFSET 0.018946 -31.938133 0.493100
				CHANNELS 3 Xrotation Yrotation Zrotation
				JOINT RightFoot
				{
					OFFSET -0.018946 -31.938126 -4.336299
					CHANNELS 3 Xrotation Yrotation Zrotation
					JOINT RightToeBase
					{
						OFFSET -0.943001 -26.722004 15.023500
						CHANNELS 3 Xrotation Yrotation Zrotation
						End Site
						{
							OFFSET 0 0 0
						}
					}
				}
			}
		}
	}
	JOINT Hips_virtual
	{
		OFFSET 0.000000 0.000000 0.000000
		CHANNELS 3 Xrotation Yrotation Zrotation
		JOINT Hips
		{
			OFFSET -0.000000 -0.000000 -0.000000
			CHANNELS 3 Xrotation Yrotation Zrotation
			JOINT Spine
			{
				OFFSET 0.000000 10.199997 -0.299500
				CHANNELS 3 Xrotation Yrotation Zrotation
				JOINT Spine1
				{
					OFFSET 0.000000 11.900002 -1.516600
					CHANNELS 3 Xrotation Yrotation Zrotation
					JOINT Spine2
					{
						OFFSET 0.000000 13.600006 -2.842500
						CHANNELS 3 Xrotation Yrotation Zrotation
						JOINT Neck_virtual
						{
							OFFSET 0.000000 0.000000 0.000000
							CHANNELS 3 Xrotation Yrotation Zrotation
							JOINT Neck
							{
								OFFSET 0.000000 9.624100 -2.890100
								CHANNELS 3 Xrotation Yrotation Zrotation
								JOINT Head
								{
									OFFSET 0.000000 14.068802 -1.351900
									CHANNELS 3 Xrotation Yrotation Zrotation
									End Site
									{
										OFFSET 0 0 0
									}
								}
							}
						}
						JOINT LeftShoulder_virtual
						{
							OFFSET 0.000000 0.000000 0.000000
							CHANNELS 3 Xrotation Yrotation Zrotation
							JOINT LeftShoulder
							{
								OFFSET 15.263000 10.923401 -0.547700
								CHANNELS 3 Xrotation Yrotation Zrotation
								JOINT LeftArm
								{
									OFFSET 25.438599 -2.830597 -13.032500
									CHANNELS 3 Xrotation Yrotation Zrotation
									JOINT LeftForeArm
									{
										OFFSET 29.960503 0.000000 0.000000
										CHANNELS 3 Xrotation Yrotation Zrotation
										JOINT LeftHand
										{
											OFFSET 27.849251 0.000000 0.000000
											CHANNELS 3 Xrotation Yrotation Zrotation
											End Site
											{
												OFFSET 0 0 0
											}
										}
									}
								}
							}
						}
						JOINT RightShoulder_virtual
						{
							OFFSET 0.000000 0.000000 0.000000
							CHANNELS 3 Xrotation Yrotation Zrotation
							JOINT RightShoulder
							{
								OFFSET -15.263000 10.923401 -0.547700
								CHANNELS 3 Xrotation Yrotation Zrotation
								JOINT RightArm
								{
									OFFSET -25.438599 -2.830597 -13.032500
									CHANNELS 3 Xrotation Yrotation Zrotation
									JOINT RightForeArm
									{
										OFFSET -29.960503 0.000000 0.000000
										CHANNELS 3 Xrotation Yrotation Zrotation
										JOINT RightHand
										{
											OFFSET -27.849251 0.000000 0.000000
											CHANNELS 3 Xrotation Yrotation Zrotation
											End Site
											{
												OFFSET 0 0 0
											}
										}
									}
								}
							}
						}
					}
				}
			}
		}
	}
}
MOTION
Frames: 7
Frame Time: 0.03333333
109.707375 86.247383 210.889969 0.000000 0.000000 0.000000 -80.590310 22.283781 95.131066 -91.185826 -19.119144 58.691194 82.829117 -5.595515 -3.775862 21.805833 -5.619702 -16.117508 0.000000 0.000000 0.000000 -86.357558 62.711348 69.853137 -79.447934 11.104523 -11.568275 66.449053 5.694426 -0.379305 8.604128 4.649018 16.636760 0.000000 0.000000 0.000000 -6.257874 -5.395219 12.275645 -62.573856 21.609117 94.138646 11.364085 6.302695 11.179870 1.528528 3.300350 8.427007 0.000000 0.000000 0.000000 7.028910 3.452600 7.161326 3.578852 2.534224 1.785844 0.000000 0.000000 0.000000 1.798508 2.570229 5.636858 -3.772202 -5.066102 12.377204 -6.073687 -16.115008 -9.214632 12.378500 -28.696958 3.150812 0.000000 0.000000 0.000000 1.113353 0.828907 8.340545 -1.840079 4.223153 24.807495 -20.512740 -7.002425 20.752603 -3.283504 35.643329 -6.156439 0.000000 0.000000 0.000000 
112.569099 83.496407 216.028580 0.000000 0.000000 0.000000 -92.318394 13.169858 108.410436 -94.543239 -24.555766 62.446077 84.742731 -5.376155 -3.916047 23.079127 -5.379123 -16.109667 0.000000 0.000000 0.000000 -114.717371 46.396485 102.777572 -89.984034 6.916412 -0.380347 67.133882 6.049798 -0.482186 8.454775 4.979261 16.883024 0.000000 0.000000 0.000000 -9.944983 0.380366 15.751333 -71.340643 9.860627 106.519519 11.004008 6.662350 11.185480 1.336715 3.479506 8.423131 0.000000 0.000000 0.000000 7.211839 3.447974 6.949006 3.554002 2.523156 1.687496 0.000000 0.000000 0.000000 2.172383 2.735686 5.509499 -3.650052 -4.618568 12.003953 -5.440693 -15.234011 -9.675558 12.343457 -28.445089 3.069723 0.000000 0.000000 0.000000 1.388848 1.048269 8.262137 -1.854120 4.208732 24.939387 -21.069460 -6.387483 22.153934 -3.551734 38.159208 -5.661236 0.000000 0.000000 0.000000 
115.768738 80.136131 221.205963 0.000000 0.000000 0.000000 -98.633997 6.760732 116.128215 -96.382650 -28.456957 65.427311 86.004875 -5.061914 -4.139549 24.090233 -4.998566 -16.122028 0.000000 0.000000 0.000000 -122.429925 32.402103 113.840143 -97.705105 2.116183 8.084999 68.056736 6.110901 -0.743451 8.621787 5.136511 16.620560 0.000000 0.000000 0.000000 -13.402437 5.367162 19.160562 -74.085484 2.099469 111.978896 10.648018 6.844635 11.191081 1.151835 3.570414 8.413707 0.000000 0.000000 0.000000 7.299507 3.389979 6.819682 3.483393 2.472242 1.646191 0.000000 0.000000 0.000000 2.511963 2.887657 5.405898 -3.544812 -4.249647 11.727464 -4.977510 -14.293368 -10.197023 12.257402 -28.267464 3.015068 0.000000 0.000000 0.000000 1.660087 1.214336 8.194694 -1.850324 3.937259 25.139944 -21.534746 -5.994731 23.609468 -3.852641 40.359806 -5.069862 0.000000 0.000000 0.000000 
119.333221 76.041847 226.458221 0.000000 0.000000 0.000000 -102.309861 3.171927 121.005598 -97.077308 -31.047141 67.952514 86.731914 -4.652604 -4.443263 24.874038 -4.473689 -16.152936 0.000000 0.000000 0.000000 -124.883875 23.132652 118.526554 -103.032755 -2.309837 14.151819 69.112512 5.881624 -1.121491 9.026199 5.102178 15.911177 0.000000 0.000000 0.000000 -16.429866 9.660189 22.281569 -74.446419 -2.196242 114.248212 10.275754 6.887109 11.210351 0.961666 3.594129 8.406809 0.000000 0.000000 0.000000 7.302210 3.295823 6.775064 3.373173 2.388408 1.665143 0.000000 0.000000 0.000000 2.820383 3.041523 5.323021 -3.460118 -3.922006 11.538888 -4.709056 -13.308192 -10.771571 12.128151 -28.210959 3.009780 0.000000 0.000000 0.000000 1.942130 1.340071 8.137365 -1.812211 3.431860 25.421003 -21.836736 -5.836801 25.017231 -4.142281 42.208708 -4.446657 0.000000 0.000000 0.000000 
123.218811 71.202614 231.811874 0.000000 0.000000 0.000000 -104.639024 1.746419 124.349331 -96.920610 -32.593721 70.220239 87.105826 -4.152893 -4.804947 25.501881 -3.816838 -16.179759 0.000000 0.000000 0.000000 -125.479017 17.373081 120.468035 -106.579235 -5.967800 18.391290 70.218211 5.420765 -1.563444 9.582190 4.898791 14.882152 0.000000 0.000000 0.000000 -18.926987 13.446347 24.994802 -73.875258 -4.132352 114.985538 9.874603 6.834341 11.244117 0.759506 3.575804 8.402369 0.000000 0.000000 0.000000 7.244333 3.188977 6.800839 3.234654 2.283355 1.738577 0.000000 0.000000 0.000000 3.117807 3.214950 5.252369 -3.386527 -3.585074 11.415216 -4.579918 -12.300973 -11.402769 11.986607 -28.317382 3.073160 0.000000 0.000000 0.000000 2.254419 1.446254 8.085714 -1.724818 2.751498 25.783349 -21.961235 -5.869692 26.289103 -4.388222 43.758037 -3.852558 0.000000 0.000000 0.000000 
127.318588 65.752304 237.258057 0.000000 0.000000 0.000000 -106.214865 1.814991 126.814893 -96.137665 -33.339793 72.340610 87.313218 -3.588098 -5.183883 26.052662 -3.073704 -16.172254 0.000000 0.000000 0.000000 -125.213186 13.922028 120.954345 -108.856843 -8.842536 21.340909 71.341210 4.819475 -2.018738 10.228920 4.581499 13.691454 0.000000 0.000000 0.000000 -20.849946 16.872796 27.256162 -72.919660 -4.529448 115.002873 9.452442 6.724307 11.273508 0.551408 3.537801 8.388573 0.000000 0.000000 0.000000 7.161278 3.094403 6.868469 3.082983 2.170875 1.852349 0.000000 0.000000 0.000000 3.436603 3.423556 5.180744 -3.303857 -3.188714 11.320467 -4.458835 -11.309590 -12.104509 11.884783 -28.625700 3.220941 0.000000 0.000000 0.000000 2.616406 1.557536 8.031677 -1.577776 1.979185 26.213684 -21.954086 -6.005245 27.357734 -4.579243 45.132903 -3.332557 0.000000 0.000000 0.000000 
131.481216 59.963474 242.737793 0.000000 0.000000 0.000000 -107.303966 2.833609 128.746224 -94.906066 -33.489008 74.358985 87.500631 -3.006116 -5.524269 26.586481 -2.323098 -16.097378 0.000000 0.000000 0.000000 -124.460691 11.918103 120.655346 -110.230353 -11.084756 23.436414 72.507813 4.178939 -2.444047 10.945189 4.223335 12.502135 0.000000 0.000000 0.000000 -22.176347 20.009099 29.056902 -71.746745 -3.912702 114.716360 9.032071 6.581836 11.262831 0.353090 3.495836 8.343699 0.000000 0.000000 0.000000 7.093645 3.033792 6.939963 2.934744 2.063962 1.986344 0.000000 0.000000 0.000000 3.812095 3.677336 5.091194 -3.187288 -2.695217 11.207225 -4.173334 -10.390979 -12.900681 11.885163 -29.174207 3.464363 0.000000 0.000000 0.000000 3.042952 1.697461 7.964089 -1.367301 1.204263 26.684062 -21.903985 -6.132180 28.175715 -4.725661 46.498797 -2.910877 0.000000 0.000000 0.000000 
